<svg width="31" height="39" viewBox="0 0 31 39" fill="none" xmlns="http://www.w3.org/2000/svg">
<path d="M2.96 38.8971C1.57333 38.8971 0.88 38.3904 0.88 37.3771C0.88 37.1104 0.906667 36.9238 0.96 36.8171C1.81333 35.8038 3.14667 34.9238 4.96 34.1771C5.38667 34.0704 5.78667 33.9371 6.16 33.7771C6.58667 33.6171 6.98667 33.4838 7.36 33.3771L9.68 32.6571C10.1067 31.8038 10.6933 30.7104 11.44 29.3771C12.1867 27.9904 13.0667 26.3904 14.08 24.5771C15.0933 22.7638 16.24 20.7104 17.52 18.4171C18.8 16.0704 20.24 13.4838 21.84 10.6571C22.0533 10.3904 22.32 9.96375 22.64 9.37709C22.7467 9.11042 22.88 8.84375 23.04 8.57709C23.2533 8.31042 23.4667 7.99042 23.68 7.61709C22.72 8.47042 20.64 9.80376 17.44 11.6171C17.2267 11.7771 17.04 11.8571 16.88 11.8571C16.6667 11.8571 16.56 11.7504 16.56 11.5371C16.56 10.7904 17.0667 10.1504 18.08 9.61709C18.3467 9.51042 18.6933 9.29709 19.12 8.97709C19.5467 8.65709 20.0267 8.25709 20.56 7.77709C21.1467 7.35042 21.7867 6.81709 22.48 6.17709C23.2267 5.53709 24.0533 4.84375 24.96 4.09709C27.6267 1.85709 29.6267 0.817088 30.96 0.977088C30.96 1.35042 30.2933 2.44375 28.96 4.25709C27.1467 7.03042 25.5467 9.59042 24.16 11.9371C22.9333 14.0704 21.4133 16.7638 19.6 20.0171C17.84 23.2171 15.76 27.0304 13.36 31.4571C16.72 30.3904 19.44 29.8571 21.52 29.8571H23.36C24.2667 29.8571 24.72 30.1771 24.72 30.8171C24.72 31.5104 24.2667 31.8571 23.36 31.8571H21.52C20.2933 31.8571 18.6133 32.2304 16.48 32.9771C16.0533 33.1904 15.6 33.3771 15.12 33.5371C14.6933 33.6971 14.2667 33.8571 13.84 34.0171C12.9333 34.3371 12.08 34.6838 11.28 35.0571C8.66667 37.6171 5.89333 38.8971 2.96 38.8971Z" fill="white"/>
</svg>
