<svg width="38" height="38" viewBox="0 0 38 38" fill="none" xmlns="http://www.w3.org/2000/svg">
<path d="M1.04 37.1371C0.4 37.1371 0.08 36.8704 0.08 36.3371C0.08 34.5238 3.36 31.1371 9.92 26.1771C12.2667 24.4171 14.72 22.6571 17.28 20.8971C19.8933 19.0838 22.6667 17.2704 25.6 15.4571C31.0933 12.0971 33.84 8.97709 33.84 6.09709C33.84 4.71042 33.36 3.61709 32.4 2.81709C31.44 2.01709 30.16 1.61709 28.56 1.61709C25.2 1.61709 21.8133 3.00376 18.4 5.77709C18.3467 6.25709 17.3067 7.59042 15.28 9.77709C14.96 10.0971 14.6667 10.2571 14.4 10.2571C13.8133 10.2571 13.52 9.77709 13.52 8.81709C13.52 6.95042 15.4667 5.03042 19.36 3.05709C22.56 1.35042 25.3067 0.390421 27.6 0.177089C28.0267 0.123755 28.4267 0.0970874 28.8 0.0970874C29.1733 0.0437547 29.5467 0.0170884 29.92 0.0170884C35.04 0.0170884 37.44 2.17709 37.12 6.49709C36.9067 9.43042 32.8533 13.3504 24.96 18.2571C20.32 21.0304 17.2267 23.0304 15.68 24.2571C12.5333 26.6038 9.70667 29.2704 7.2 32.2571C8.74667 31.6704 11.0933 31.1104 14.24 30.5771C15.9467 30.3104 17.5733 30.1238 19.12 30.0171C20.6667 29.8571 22.1333 29.7771 23.52 29.7771C26.24 29.7771 28.16 30.0438 29.28 30.5771C30.2933 30.9504 30.8 31.8304 30.8 33.2171C30.8 34.5504 29.92 35.7504 28.16 36.8171C27.7867 37.0304 27.4133 37.1371 27.04 37.1371C26.5067 37.1371 26.24 36.9504 26.24 36.5771C26.24 36.3638 26.48 36.0704 26.96 35.6971C27.44 35.2704 27.68 34.7904 27.68 34.2571C27.68 33.1371 27.12 32.3904 26 32.0171C24.9333 31.6438 23.7067 31.4571 22.32 31.4571C20.24 31.4571 17.3867 31.9371 13.76 32.8971C13.0667 33.1104 12.1067 33.4304 10.88 33.8571C9.70667 34.2304 8.26667 34.7638 6.56 35.4571C3.78667 36.5771 1.94667 37.1371 1.04 37.1371Z" fill="white"/>
</svg>
