<svg width="38" height="43" viewBox="0 0 38 43" fill="none" xmlns="http://www.w3.org/2000/svg">
<path d="M1.48 42.7771C1.10667 42.7771 0.92 42.5904 0.92 42.2171C0.92 41.6304 1.42667 41.2304 2.44 41.0171C5.64 40.2704 8.81333 39.2304 11.96 37.8971C15.1067 36.6171 18.3067 35.0704 21.56 33.2571C30.1467 28.4571 34.44 23.7638 34.44 19.1771C34.44 17.6304 33.9067 16.2171 32.84 14.9371C31.8267 13.6571 30.52 12.9371 28.92 12.7771L25.96 12.4571C23.7733 13.4704 21.8533 13.9771 20.2 13.9771C19.2933 13.9771 18.6533 13.8438 18.28 13.5771C17.96 13.3104 17.8 12.9104 17.8 12.3771C17.8 11.4171 18.6 10.7504 20.2 10.3771C21.8 10.0038 23.5067 9.87042 25.32 9.97709C30.0133 8.00375 32.36 6.19042 32.36 4.53709C32.36 2.99042 30.9733 2.21709 28.2 2.21709C26.2267 2.21709 24.3867 2.53709 22.68 3.17709C21.2933 3.76375 20.4133 4.27042 20.04 4.69709C19.6667 5.23042 19.3467 5.49709 19.08 5.49709C18.6 5.49709 18.36 5.20375 18.36 4.61709C18.36 4.24375 18.52 3.87042 18.84 3.49709C19.4267 2.75042 20.6 2.05709 22.36 1.41709C24.44 0.617088 26.76 0.217087 29.32 0.217087C33.8533 0.217087 36.12 1.55042 36.12 4.21709C36.12 6.19042 34.0933 8.24375 30.04 10.3771C32.12 10.8038 33.8 11.8438 35.08 13.4971C36.4133 15.1504 37.08 17.0171 37.08 19.0971C37.08 24.3238 32.4133 29.4438 23.08 34.4571C16.4133 38.0838 9.42667 40.8038 2.12 42.6171C1.8 42.7238 1.58667 42.7771 1.48 42.7771Z" fill="white"/>
</svg>
