<svg width="157" height="157" viewBox="0 0 157 157" fill="none" xmlns="http://www.w3.org/2000/svg">
<path d="M137 104.028V51.9998C136.998 50.2969 136.55 48.6243 135.7 47.1483C134.851 45.6724 133.63 44.4447 132.159 43.5874L85.846 16.6347C83.6147 15.3357 81.0789 14.6513 78.497 14.6513C75.915 14.6513 73.3792 15.3357 71.1479 16.6347L24.8415 43.5874C23.3701 44.4447 22.149 45.6724 21.2995 47.1483C20.4501 48.6243 20.0021 50.2969 20 51.9998V104.028C20.001 105.732 20.4486 107.406 21.298 108.883C22.1475 110.36 23.3692 111.589 24.8415 112.447L71.154 139.399C73.3859 140.697 75.9215 141.38 78.503 141.38C81.0846 141.38 83.6202 140.697 85.8521 139.399L132.165 112.447C133.636 111.588 134.856 110.359 135.705 108.882C136.553 107.405 137 105.732 137 104.028Z" stroke="white" stroke-width="4" stroke-linecap="round" stroke-linejoin="round"/>
<path d="M21.5234 46.9359L78.5 80.4515L135.477 46.9359M78.5 141.389V80.4515" stroke="white" stroke-width="4" stroke-linecap="round" stroke-linejoin="round"/>
</svg>
