<svg width="140" height="141" viewBox="0 0 140 141" fill="none" xmlns="http://www.w3.org/2000/svg">
<path d="M39.8153 126.892H100.185C105.599 126.892 109.906 122.438 109.323 117.305C105.563 84.2358 83.1251 84.7827 83.1251 70.0171C83.1251 55.2515 105.851 56.0718 109.32 22.7288C109.867 17.5937 105.599 13.1421 100.185 13.1421H39.8153C34.4013 13.1421 30.1439 17.5937 30.6798 22.7288C34.1497 56.0718 56.8751 54.978 56.8751 70.0171C56.8751 85.0562 34.4368 84.2358 30.6798 117.305C30.0946 122.438 34.4013 126.892 39.8153 126.892Z" stroke="white" stroke-width="4" stroke-linecap="round" stroke-linejoin="round"/>
<path d="M93.8712 118.142H46.2466C41.981 118.142 40.7778 113.22 43.7692 110.169C51.0099 102.83 65.6251 97.5741 65.6251 89.1577V61.2671C65.6251 55.8394 55.2345 51.6968 48.806 42.8921C47.745 41.4401 47.8517 39.3921 50.5477 39.3921H89.5755C91.8751 39.3921 92.3727 41.4237 91.3255 42.8784C84.9899 51.6968 74.3751 55.812 74.3751 61.2671V89.1577C74.3751 97.5058 89.6083 102.009 96.3595 110.177C99.0802 113.469 98.1286 118.142 93.8712 118.142Z" fill="white"/>
</svg>
