<svg width="145" height="145" viewBox="0 0 145 145" fill="none" xmlns="http://www.w3.org/2000/svg">
<path d="M72.5 45.0171C82.4411 45.0171 90.5 36.9582 90.5 27.0171C90.5 17.076 82.4411 9.01709 72.5 9.01709C62.5589 9.01709 54.5 17.076 54.5 27.0171C54.5 36.9582 62.5589 45.0171 72.5 45.0171Z" stroke="white" stroke-width="4" stroke-linecap="round" stroke-linejoin="round"/>
<path d="M77 46.1421C77 45.4708 76.7333 44.8269 76.2586 44.3522C75.7839 43.8775 75.1401 43.6108 74.4688 43.6108H70.5312C69.8599 43.6108 69.2161 43.8775 68.7414 44.3522C68.2667 44.8269 68 45.4708 68 46.1421V128.706C68.0005 129.901 68.2386 131.085 68.7003 132.188L71.5325 138.938C71.6274 139.111 71.7673 139.256 71.9376 139.357C72.1078 139.458 72.3021 139.512 72.5 139.512C72.6979 139.512 72.8922 139.458 73.0624 139.357C73.2327 139.256 73.3726 139.111 73.4675 138.938L76.2997 132.188C76.7614 131.085 76.9995 129.901 77 128.706V46.1421Z" fill="white"/>
<path d="M79.25 27.0171C82.9779 27.0171 86 23.995 86 20.2671C86 16.5392 82.9779 13.5171 79.25 13.5171C75.5221 13.5171 72.5 16.5392 72.5 20.2671C72.5 23.995 75.5221 27.0171 79.25 27.0171Z" fill="white"/>
</svg>
