<svg width="122" height="23" viewBox="0 0 122 23" fill="none" xmlns="http://www.w3.org/2000/svg">
<path d="M0.473164 0.999999H13.5532V3.97H3.95316V10.45H13.2232V13.42H3.95316V22H0.473164V0.999999ZM17.0552 0.999999H29.7452V3.94H20.5352V9.73H29.4152V12.67H20.5352V19.06H29.8652V22H17.0552V0.999999ZM33.0806 0.999999H45.7706V3.94H36.5606V9.73H45.4406V12.67H36.5606V19.06H45.8906V22H33.0806V0.999999ZM49.106 0.999999H52.586V19.06H63.116V22H49.106V0.999999ZM75.0091 22.42C72.9691 22.42 71.0991 21.95 69.3991 21.01C67.7191 20.05 66.3891 18.74 65.4091 17.08C64.4291 15.42 63.9391 13.56 63.9391 11.5C63.9391 9.44 64.4291 7.58 65.4091 5.92C66.3891 4.26 67.7191 2.96 69.3991 2.02C71.0991 1.06 72.9691 0.579999 75.0091 0.579999C77.0491 0.579999 78.9191 1.06 80.6191 2.02C82.3191 2.96 83.6591 4.26 84.6391 5.92C85.6191 7.58 86.1091 9.44 86.1091 11.5C86.1091 13.56 85.6191 15.42 84.6391 17.08C83.6591 18.74 82.3191 20.05 80.6191 21.01C78.9191 21.95 77.0491 22.42 75.0091 22.42ZM75.0091 19.39C76.4291 19.39 77.7191 19.07 78.8791 18.43C80.0591 17.79 80.9791 16.88 81.6391 15.7C82.3191 14.5 82.6591 13.1 82.6591 11.5C82.6591 9.9 82.3191 8.5 81.6391 7.3C80.9791 6.1 80.0591 5.18 78.8791 4.54C77.7191 3.9 76.4291 3.58 75.0091 3.58C73.5891 3.58 72.2991 3.9 71.1391 4.54C69.9791 5.18 69.0591 6.1 68.3791 7.3C67.7191 8.5 67.3891 9.9 67.3891 11.5C67.3891 13.1 67.7191 14.5 68.3791 15.7C69.0591 16.88 69.9791 17.79 71.1391 18.43C72.2991 19.07 73.5891 19.39 75.0091 19.39ZM86.0428 0.999999H89.7028L96.0328 15.94L102.363 0.999999H106.023L96.7828 22H95.2828L86.0428 0.999999ZM108.461 0.999999H121.151V3.94H111.941V9.73H120.821V12.67H111.941V19.06H121.271V22H108.461V0.999999Z" fill="#1E1E1E"/>
</svg>
