<svg width="24" height="25" viewBox="0 0 24 25" fill="none" xmlns="http://www.w3.org/2000/svg">
<path d="M16.3748 3.26693C17.5342 3.2704 18.6451 3.73248 19.4648 4.55226C20.2846 5.37204 20.7467 6.48291 20.7502 7.64225V16.3919C20.7467 17.5513 20.2846 18.6621 19.4648 19.4819C18.6451 20.3017 17.5342 20.7638 16.3748 20.7672H7.62516C6.46582 20.7638 5.35495 20.3017 4.53517 19.4819C3.71539 18.6621 3.25331 17.5513 3.24984 16.3919V7.64225C3.25331 6.48291 3.71539 5.37204 4.53517 4.55226C5.35495 3.73248 6.46582 3.2704 7.62516 3.26693H16.3748V3.26693ZM16.3748 1.51709H7.62516C4.25625 1.51709 1.5 4.27334 1.5 7.64225V16.3919C1.5 19.7608 4.25625 22.5171 7.62516 22.5171H16.3748C19.7437 22.5171 22.5 19.7608 22.5 16.3919V7.64225C22.5 4.27334 19.7437 1.51709 16.3748 1.51709V1.51709Z" fill="#333333"/>
<path d="M17.6873 7.64209C17.4277 7.64209 17.174 7.56512 16.9581 7.4209C16.7423 7.27668 16.5741 7.07169 16.4747 6.83186C16.3754 6.59204 16.3494 6.32814 16.4 6.07354C16.4507 5.81894 16.5757 5.58507 16.7592 5.40151C16.9428 5.21796 17.1767 5.09295 17.4313 5.04231C17.6859 4.99167 17.9498 5.01766 18.1896 5.117C18.4294 5.21634 18.6344 5.38457 18.7786 5.60041C18.9228 5.81624 18.9998 6.07 18.9998 6.32959C19.0002 6.50206 18.9665 6.67289 18.9007 6.8323C18.8348 6.99171 18.7382 7.13655 18.6162 7.2585C18.4943 7.38045 18.3494 7.47711 18.19 7.54294C18.0306 7.60877 17.8598 7.64246 17.6873 7.64209V7.64209ZM12 8.51678C12.6923 8.51678 13.369 8.72206 13.9446 9.10666C14.5202 9.49127 14.9688 10.0379 15.2337 10.6775C15.4986 11.3171 15.5679 12.0208 15.4329 12.6998C15.2978 13.3788 14.9645 14.0024 14.475 14.4919C13.9855 14.9814 13.3618 15.3148 12.6828 15.4498C12.0039 15.5849 11.3001 15.5156 10.6605 15.2507C10.021 14.9857 9.47433 14.5371 9.08972 13.9615C8.70512 13.3859 8.49984 12.7092 8.49984 12.0169C8.50083 11.0889 8.86992 10.1992 9.52611 9.54305C10.1823 8.88686 11.072 8.51777 12 8.51678V8.51678ZM12 6.76694C10.9616 6.76694 9.94661 7.07484 9.08325 7.65172C8.2199 8.2286 7.54699 9.04854 7.14963 10.0079C6.75227 10.9672 6.64831 12.0228 6.85088 13.0412C7.05345 14.0596 7.55346 14.995 8.28769 15.7293C9.02191 16.4635 9.95737 16.9635 10.9758 17.1661C11.9942 17.3686 13.0498 17.2647 14.0091 16.8673C14.9684 16.47 15.7883 15.797 16.3652 14.9337C16.9421 14.0703 17.25 13.0553 17.25 12.0169C17.25 10.6246 16.6969 9.28919 15.7123 8.30463C14.7277 7.32006 13.3924 6.76694 12 6.76694V6.76694Z" fill="#333333"/>
</svg>
