<svg width="24" height="25" viewBox="0 0 24 25" fill="none" xmlns="http://www.w3.org/2000/svg">
<path d="M15 4.51709H4.125C3.62772 4.51709 3.15081 4.71463 2.79917 5.06626C2.44754 5.4179 2.25 5.89481 2.25 6.39209V17.6421C2.25 18.1394 2.44754 18.6163 2.79917 18.9679C3.15081 19.3195 3.62772 19.5171 4.125 19.5171H19.8155C20.3128 19.5171 20.7897 19.3195 21.1413 18.9679C21.4929 18.6163 21.6905 18.1394 21.6905 17.6421V11.2202" stroke="#333333" stroke-linecap="round" stroke-linejoin="round"/>
<path d="M5.25 7.51709L12 12.7671L16.0781 9.68881" stroke="#333333" stroke-linecap="round" stroke-linejoin="round"/>
<path d="M20.2477 8.26729C21.489 8.26729 22.4953 7.26098 22.4953 6.01963C22.4953 4.77828 21.489 3.77197 20.2477 3.77197C19.0063 3.77197 18 4.77828 18 6.01963C18 7.26098 19.0063 8.26729 20.2477 8.26729Z" fill="#333333"/>
<path d="M18.8624 8.09636C19.273 8.37073 19.7557 8.51721 20.2496 8.51729C20.9119 8.51677 21.547 8.25342 22.0154 7.78506C22.4837 7.3167 22.7471 6.68163 22.7476 6.01927L18.8624 8.09636ZM18.8624 8.09636C18.4516 7.82191 18.1315 7.43183 17.9424 6.97544M18.8624 8.09636L17.9424 6.97544M17.9424 6.97544C17.7534 6.51905 17.7039 6.01686 17.8003 5.53236M17.9424 6.97544L17.8003 5.53236M17.8003 5.53236C17.8967 5.04786 18.1346 4.60282 18.4839 4.25352M17.8003 5.53236L18.4839 4.25352M18.4839 4.25352C18.8332 3.90422 19.2782 3.66634 19.7627 3.56997M18.4839 4.25352L19.7627 3.56997M19.7627 3.56997C20.2472 3.47359 20.7494 3.52306 21.2058 3.7121M19.7627 3.56997L21.2058 3.7121M21.2058 3.7121C21.6622 3.90114 22.0522 4.22127 22.3267 4.63201M21.2058 3.7121L22.3267 4.63201M22.3267 4.63201C22.6011 5.04264 22.7475 5.52539 22.7476 6.01924L22.3267 4.63201ZM19.8563 7.98331L19.9541 7.49298L19.8563 7.98331C20.2443 8.06074 20.6466 8.02131 21.0123 7.87003C21.3779 7.71875 21.6904 7.4624 21.9103 7.13344C22.1302 6.80447 22.2476 6.41767 22.2476 6.02198C22.2476 5.49208 22.0373 4.98385 21.6629 4.60886C21.2885 4.23388 20.7806 4.0228 20.2508 4.02197C19.8551 4.02136 19.4681 4.13813 19.1388 4.35752C18.8095 4.5769 18.5526 4.88904 18.4008 5.25444C18.2489 5.61984 18.2089 6.02207 18.2857 6.41024C18.3625 6.7984 18.5527 7.15506 18.8323 7.43508C19.1119 7.7151 19.4682 7.90589 19.8563 7.98331Z" fill="#333333" stroke="#333333"/>
</svg>
